# xmcd
#
# Track frame offsets: 
#        150
#        2644
#        22351
#        38544
#        59565
#        86839
#        108081
#        125134
#        149404
#        164117
#        189512
#        216160
#
# Disc length: 3058 seconds
#
# Revision: 0
# Processed by: cddbd v1.5.2PL0 Copyright (c) Steve Scherf et al.
# Submitted via: ExactAudioCopy v1.0b3
#
DISCID=b20bf00c
DTITLE=さかいゆう - How's it going?
DYEAR=2012
DGENRE=Pop
TTITLE0=Intro
TTITLE1=Jammin'
TTITLE2=パスポート
TTITLE3=LOVE and LIVE LETTER～さかいゆうtrio ver.～
TTITLE4=もしも あの朝に…
TTITLE5=Lalalai
TTITLE6=ペテン師と臆病者
TTITLE7=How Beautiful～English ver.～
TTITLE8=サンバ☆エロティカ
TTITLE9=されど僕らの日々
TTITLE10=君と僕の挽歌～Album ver.～
TTITLE11=パズル
EXTD=
EXTT0=
EXTT1=
EXTT2=
EXTT3=
EXTT4=
EXTT5=
EXTT6=
EXTT7=
EXTT8=
EXTT9=
EXTT10=
EXTT11=
PLAYORDER=
